<svg width="52" height="52" viewBox="0 0 52 52" fill="none" xmlns="http://www.w3.org/2000/svg">
<path d="M41.3908 40.7727H31.977L30.3333 39H32.4253L22.7126 27.625V24.5227H27.4943C29.7356 24.5227 32.2759 23.6364 32.2759 20.3864C32.2759 18.1409 30.931 16.5455 27.4943 16.25H15.8391V40.7727H13.7471V14.3295H27.4943C29.7655 14.3295 31.4291 15.1174 32.1264 15.6591C33.1724 16.25 34.8721 18.9091 34.2184 22.0114C33.6759 24.5855 31.2054 25.9753 29.7107 26.468C29.4325 26.5597 29.1391 26.5909 28.8459 26.5909H24.8046L35.1149 39H39.8965L41.3908 40.7727Z" fill="#C63E35"/>
<path d="M20.7701 20.6758C20.7701 21.6548 19.9673 22.4485 18.977 22.4485C17.9867 22.4485 17.1839 21.6548 17.1839 20.6758C17.1839 19.6967 17.9867 18.903 18.977 18.903C19.9673 18.903 20.7701 19.6967 20.7701 20.6758Z" fill="#C63E35"/>
<path d="M20.023 40.7727H17.931V23.9318H20.023V40.7727Z" fill="#C63E35"/>
<path d="M52 26C52 40.3594 40.3594 52 26 52C11.6406 52 0 40.3594 0 26C0 11.6406 11.6406 0 26 0C40.3594 0 52 11.6406 52 26ZM1.33122 26C1.33122 39.6242 12.3758 50.6688 26 50.6688C39.6242 50.6688 50.6688 39.6242 50.6688 26C50.6688 12.3758 39.6242 1.33122 26 1.33122C12.3758 1.33122 1.33122 12.3758 1.33122 26Z" fill="#C63E35"/>
<path d="M37.954 36.4886H35.2644L28.6897 28.3636L29.2679 28.3117C29.9741 28.2482 30.6663 28.0787 31.3209 27.8091C31.8558 27.5887 32.361 27.3034 32.8246 26.9596L33.2696 26.6296C33.7024 26.3088 34.1171 25.9622 34.4619 25.5502C34.8294 25.1111 35.2631 24.5253 35.5632 23.9318C36.1609 22.75 36.908 19.0568 35.1149 15.9545C33.6805 13.4727 30.8314 12.4583 29.5862 12.2614H13.7471V10.3409H28.8391C31.2299 10.3409 33.7203 11.8182 34.6667 12.5568C36.5793 13.8568 37.7548 16.5947 38.1034 18.0227C38.2838 18.7614 38.6713 21.7159 37.3563 24.6705C36.0414 27.625 33.3218 29.1515 32.1264 29.5455L37.954 36.4886Z" fill="#C63E35"/>
</svg>
